<?xml version="1.0" encoding="iso-8859-1"?>
<!-- Uploaded to: SVG Repo, www.svgrepo.com, Generator: SVG Repo Mixer Tools -->
<svg version="1.1" id="Layer_1" xmlns="http://www.w3.org/2000/svg" xmlns:xlink="http://www.w3.org/1999/xlink" 
	 viewBox="0 0 512 512" xml:space="preserve">
<rect x="7.858" y="83.906" style="fill:#75C0C7;" width="496.288" height="344.193"/>
<g>
	<rect x="440.106" y="300.029" style="fill:#4BAF78;" width="32.018" height="88.055"/>
	<rect x="384.071" y="243.995" style="fill:#4BAF78;" width="88.055" height="32.018"/>
</g>
<g>
	<rect x="272.012" y="243.995" style="fill:#FCBB3B;" width="32.018" height="32.018"/>
	<rect x="272.012" y="300.029" style="fill:#FCBB3B;" width="32.018" height="32.018"/>
	<rect x="272.012" y="356.054" style="fill:#FCBB3B;" width="32.018" height="32.018"/>
	<rect x="328.036" y="243.995" style="fill:#FCBB3B;" width="32.018" height="32.018"/>
	<rect x="328.036" y="300.029" style="fill:#FCBB3B;" width="32.018" height="32.018"/>
	<rect x="328.036" y="356.054" style="fill:#FCBB3B;" width="32.018" height="32.018"/>
	<rect x="384.071" y="300.029" style="fill:#FCBB3B;" width="32.018" height="32.018"/>
	<rect x="384.071" y="356.054" style="fill:#FCBB3B;" width="32.018" height="32.018"/>
</g>
<polyline style="fill:#589095;" points="7.858,428.099 7.858,83.901 223.982,83.901 "/>
<g>
	<circle style="fill:#E0DCCD;" cx="55.888" cy="260.005" r="16.009"/>
	<circle style="fill:#E0DCCD;" cx="111.913" cy="260.005" r="16.009"/>
	<circle style="fill:#E0DCCD;" cx="167.947" cy="260.005" r="16.009"/>
	<circle style="fill:#E0DCCD;" cx="55.888" cy="316.029" r="16.009"/>
	<circle style="fill:#E0DCCD;" cx="111.913" cy="316.029" r="16.009"/>
	<circle style="fill:#E0DCCD;" cx="167.947" cy="316.029" r="16.009"/>
	<circle style="fill:#E0DCCD;" cx="55.888" cy="372.064" r="16.009"/>
	<circle style="fill:#E0DCCD;" cx="111.913" cy="372.064" r="16.009"/>
	<circle style="fill:#E0DCCD;" cx="167.947" cy="372.064" r="16.009"/>
	<circle style="fill:#E0DCCD;" cx="223.982" cy="260.005" r="16.009"/>
	<circle style="fill:#E0DCCD;" cx="223.982" cy="316.029" r="16.009"/>
	<circle style="fill:#E0DCCD;" cx="223.982" cy="372.064" r="16.009"/>
</g>
<rect x="39.878" y="115.925" style="fill:#FCBB3B;" width="432.248" height="96.049"/>
<polygon style="fill:#BD8C2C;" points="141.055,211.975 39.876,211.975 39.876,115.92 201.505,115.92 "/>
<path d="M512,435.957H0V76.043h512V435.957z M15.717,420.24h480.567V91.76H15.717V420.24z"/>
<path d="M479.982,219.833H32.019V108.062h447.963V219.833z M47.735,204.116h416.53v-80.339H47.735V204.116z"/>
<path d="M55.886,283.87c-13.161,0-23.867-10.707-23.867-23.867c0-13.16,10.707-23.867,23.867-23.867s23.867,10.707,23.867,23.867
	C79.753,273.163,69.046,283.87,55.886,283.87z M55.886,251.851c-4.494,0-8.151,3.657-8.151,8.151c0,4.494,3.657,8.151,8.151,8.151
	s8.151-3.657,8.151-8.151C64.037,255.508,60.38,251.851,55.886,251.851z"/>
<path d="M111.918,283.87c-13.161,0-23.867-10.707-23.867-23.867c0-13.16,10.707-23.867,23.867-23.867s23.867,10.707,23.867,23.867
	C135.785,273.163,125.079,283.87,111.918,283.87z M111.918,251.851c-4.494,0-8.151,3.657-8.151,8.151
	c0,4.494,3.657,8.151,8.151,8.151s8.151-3.657,8.151-8.151C120.068,255.508,116.412,251.851,111.918,251.851z"/>
<path d="M167.949,283.87c-13.16,0-23.866-10.707-23.866-23.867c0-13.16,10.707-23.867,23.866-23.867
	c13.161,0,23.867,10.707,23.867,23.867C191.817,273.163,181.111,283.87,167.949,283.87z M167.949,251.851
	c-4.494,0-8.15,3.657-8.15,8.151c0,4.494,3.656,8.151,8.15,8.151s8.151-3.657,8.151-8.151
	C176.1,255.508,172.443,251.851,167.949,251.851z"/>
<path d="M55.886,339.902c-13.161,0-23.867-10.707-23.867-23.867c0-13.16,10.707-23.867,23.867-23.867s23.867,10.707,23.867,23.867
	C79.753,329.195,69.046,339.902,55.886,339.902z M55.886,307.884c-4.494,0-8.151,3.657-8.151,8.151s3.657,8.151,8.151,8.151
	s8.151-3.657,8.151-8.151S60.38,307.884,55.886,307.884z"/>
<path d="M111.918,339.902c-13.161,0-23.867-10.707-23.867-23.867c0-13.16,10.707-23.867,23.867-23.867s23.867,10.707,23.867,23.867
	C135.785,329.195,125.079,339.902,111.918,339.902z M111.918,307.884c-4.494,0-8.151,3.657-8.151,8.151s3.657,8.151,8.151,8.151
	s8.151-3.657,8.151-8.151S116.412,307.884,111.918,307.884z"/>
<path d="M167.949,339.902c-13.16,0-23.866-10.707-23.866-23.867c0-13.16,10.707-23.867,23.866-23.867
	c13.161,0,23.867,10.707,23.867,23.867C191.817,329.195,181.111,339.902,167.949,339.902z M167.949,307.884
	c-4.494,0-8.15,3.657-8.15,8.151s3.656,8.151,8.15,8.151s8.151-3.657,8.151-8.151S172.443,307.884,167.949,307.884z"/>
<path d="M55.886,395.934c-13.161,0-23.867-10.707-23.867-23.867S42.726,348.2,55.886,348.2s23.867,10.707,23.867,23.867
	S69.046,395.934,55.886,395.934z M55.886,363.915c-4.494,0-8.151,3.657-8.151,8.151s3.657,8.151,8.151,8.151
	s8.151-3.657,8.151-8.151S60.38,363.915,55.886,363.915z"/>
<path d="M111.918,395.934c-13.161,0-23.867-10.707-23.867-23.867S98.758,348.2,111.918,348.2s23.867,10.707,23.867,23.867
	S125.079,395.934,111.918,395.934z M111.918,363.915c-4.494,0-8.151,3.657-8.151,8.151s3.657,8.151,8.151,8.151
	s8.151-3.657,8.151-8.151S116.412,363.915,111.918,363.915z"/>
<path d="M167.949,395.934c-13.16,0-23.866-10.707-23.866-23.867S154.79,348.2,167.949,348.2c13.161,0,23.867,10.707,23.867,23.867
	S181.111,395.934,167.949,395.934z M167.949,363.915c-4.494,0-8.15,3.657-8.15,8.151s3.656,8.151,8.15,8.151
	s8.151-3.657,8.151-8.151S172.443,363.915,167.949,363.915z"/>
<path d="M223.982,283.87c-13.161,0-23.867-10.707-23.867-23.867c0-13.16,10.707-23.867,23.867-23.867
	c13.16,0,23.867,10.707,23.867,23.867C247.849,273.163,237.142,283.87,223.982,283.87z M223.982,251.851
	c-4.494,0-8.151,3.657-8.151,8.151c0,4.494,3.657,8.151,8.151,8.151c4.494,0,8.151-3.657,8.151-8.151
	C232.133,255.508,228.476,251.851,223.982,251.851z"/>
<path d="M223.982,339.902c-13.161,0-23.867-10.707-23.867-23.867c0-13.16,10.707-23.867,23.867-23.867
	c13.16,0,23.867,10.707,23.867,23.867C247.849,329.195,237.142,339.902,223.982,339.902z M223.982,307.884
	c-4.494,0-8.151,3.657-8.151,8.151s3.657,8.151,8.151,8.151c4.494,0,8.151-3.657,8.151-8.151S228.476,307.884,223.982,307.884z"/>
<path d="M223.982,395.934c-13.161,0-23.867-10.707-23.867-23.867s10.707-23.867,23.867-23.867c13.16,0,23.867,10.707,23.867,23.867
	S237.142,395.934,223.982,395.934z M223.982,363.915c-4.494,0-8.151,3.657-8.151,8.151s3.657,8.151,8.151,8.151
	c4.494,0,8.151-3.657,8.151-8.151S228.476,363.915,223.982,363.915z"/>
<path d="M311.886,283.87h-47.735v-47.735h47.735V283.87z M279.867,268.153h16.302v-16.302h-16.302V268.153z"/>
<path d="M311.886,339.902h-47.735v-47.735h47.735V339.902z M279.867,324.186h16.302v-16.302h-16.302V324.186z"/>
<path d="M311.886,395.934h-47.735v-47.735h47.735V395.934z M279.867,380.218h16.302v-16.302h-16.302V380.218z"/>
<path d="M367.919,283.87h-47.735v-47.735h47.735V283.87z M335.9,268.153h16.302v-16.302H335.9V268.153z"/>
<path d="M367.919,339.902h-47.735v-47.735h47.735V339.902z M335.9,324.186h16.302v-16.302H335.9V324.186z"/>
<path d="M367.919,395.934h-47.735v-47.735h47.735V395.934z M335.9,380.218h16.302v-16.302H335.9V380.218z"/>
<path d="M423.95,339.902h-47.735v-47.735h47.735V339.902z M391.933,324.186h16.302v-16.302h-16.302V324.186z"/>
<path d="M423.95,395.934h-47.735v-47.735h47.735V395.934z M391.933,380.218h16.302v-16.302h-16.302V380.218z"/>
<path d="M479.982,395.934h-47.734V292.167h47.734L479.982,395.934L479.982,395.934z M447.964,380.218h16.301v-72.334h-16.301
	V380.218z"/>
<path d="M479.982,283.87H376.216v-47.735h103.766V283.87z M391.933,268.153h72.333v-16.302h-72.333V268.153z"/>
<g>
	<rect x="55.008" y="130.877" style="fill:#FFFFFF;" width="15.717" height="15.717"/>
	<rect x="80.155" y="130.877" style="fill:#FFFFFF;" width="16.764" height="15.717"/>
	<rect x="104.253" y="130.877" style="fill:#FFFFFF;" width="15.717" height="15.717"/>
	<rect x="128.352" y="130.877" style="fill:#FFFFFF;" width="15.717" height="15.717"/>
</g>
<polygon points="319.047,195.842 303.33,195.842 303.33,146.597 295.996,146.597 295.996,130.88 319.047,130.88 "/>
<polygon points="423.824,195.842 408.107,195.842 408.107,146.597 399.725,146.597 399.725,130.88 423.824,130.88 "/>
<polygon style="fill:#FFFFFF;" points="384.008,157.075 368.292,157.075 368.292,139.262 352.575,139.262 352.575,157.075 
	336.859,157.075 336.859,172.791 352.575,172.791 352.575,188.508 368.292,188.508 368.292,172.791 384.008,172.791 "/>
</svg>